<?xml version="1.0" encoding="utf-8"?>
<!-- Generator: Adobe Illustrator 17.0.0, SVG Export Plug-In . SVG Version: 6.00 Build 0)  -->
<!DOCTYPE svg PUBLIC "-//W3C//DTD SVG 1.1//EN" "http://www.w3.org/Graphics/SVG/1.1/DTD/svg11.dtd">
<svg version="1.1" id="Layer_1" xmlns="http://www.w3.org/2000/svg" xmlns:xlink="http://www.w3.org/1999/xlink" x="0px" y="0px"
	 width="72.539px" height="39.852px" viewBox="0 0 72.539 39.852" enable-background="new 0 0 72.539 39.852" xml:space="preserve">
<g>
	<g>
		<g>
			<path fill="#000000" d="M28.963,39.497v-2.613l-0.777,1.349h-0.862l-0.777-1.349v2.613h-1.346v-5.456h1.323l1.231,2.406
				l1.231-2.406h1.323v5.456H28.963z"/>
			<path fill="#000000" d="M31.417,39.497v-5.456h3.723v1.195h-2.377v0.912h2.031v1.195h-2.031v0.958h2.377v1.195H31.417z"/>
			<path fill="#000000" d="M39.587,38.93c-0.469,0.483-0.992,0.613-1.592,0.613c-0.639,0-1.123-0.215-1.523-0.613
				c-0.577-0.575-0.554-1.341-0.554-2.161c0-0.82-0.023-1.586,0.554-2.161c0.4-0.399,0.862-0.613,1.523-0.613
				c1.408,0,2.008,0.912,2.139,1.808h-1.354c-0.108-0.414-0.323-0.613-0.785-0.613c-0.246,0-0.431,0.107-0.531,0.238
				c-0.123,0.161-0.2,0.345-0.2,1.341c0,0.996,0.077,1.188,0.2,1.349c0.1,0.13,0.285,0.23,0.531,0.23c0.285,0,0.477-0.084,0.6-0.215
				c0.154-0.153,0.208-0.375,0.208-0.582v-0.077h-0.808v-1.119h2.146v0.759C40.141,37.995,40.002,38.508,39.587,38.93z"/>
			<path fill="#000000" d="M44.057,39.497l-0.254-0.812h-1.685l-0.269,0.812h-1.408l1.992-5.456h1.039l1.992,5.456H44.057z
				 M42.987,36.11l-0.492,1.456h0.954L42.987,36.11z"/>
			<path fill="#000000" d="M48.188,37.55h-0.823v1.946h-1.346v-5.456h2.169c1.215,0,1.869,0.858,1.869,1.755
				S49.403,37.55,48.188,37.55z M48.126,35.244h-0.762v1.103h0.762c0.369,0,0.585-0.268,0.585-0.552
				C48.711,35.512,48.496,35.244,48.126,35.244z"/>
			<path fill="#000000" d="M53.619,39.497v-2.161h-1.431v2.161h-1.346v-5.456h1.346v2.1h1.431v-2.1h1.346v5.456H53.619z"/>
			<path fill="#000000" d="M59.512,38.93c-0.4,0.399-0.862,0.613-1.531,0.613s-1.131-0.215-1.531-0.613
				c-0.577-0.575-0.554-1.341-0.554-2.161c0-0.82-0.023-1.586,0.554-2.161c0.4-0.399,0.862-0.613,1.531-0.613
				s1.131,0.215,1.531,0.613c0.577,0.575,0.554,1.341,0.554,2.161C60.066,37.589,60.089,38.355,59.512,38.93z M58.52,35.428
				c-0.1-0.13-0.292-0.238-0.538-0.238c-0.246,0-0.438,0.107-0.538,0.238c-0.123,0.161-0.2,0.345-0.2,1.341
				c0,0.996,0.077,1.172,0.2,1.333c0.1,0.13,0.292,0.245,0.538,0.245c0.246,0,0.438-0.115,0.538-0.245
				c0.123-0.161,0.2-0.337,0.2-1.333C58.72,35.773,58.643,35.589,58.52,35.428z"/>
			<path fill="#000000" d="M64.097,39.497l-1.754-2.743v2.743h-1.346v-5.456h1.177l1.754,2.743v-2.743h1.346v5.456H64.097z"/>
			<path fill="#000000" d="M66.382,39.497v-5.456h3.723v1.195h-2.377v0.912h2.031v1.195h-2.031v0.958h2.377v1.195H66.382z"/>
		</g>
		<g>
			<path fill="#000000" d="M72.526,14.67c-0.243-9.075-3.734-15.493-7.513-14.585c-4.867,1.169-6.998,6.348-6.998,15.655
				c0,5.159,1.459,9.126,1.739,9.789c-0.511,0-1.665,0-2.303,0c-1.428-6.064-1.394-17.224,0.651-23.085c0,0-3.978,1.41-5.488,1.917
				c-1.534,5.842-1.585,15.326-0.154,21.168c-1.534,0-3.131,0-4.665,0c2.967-6.834,2.763-13.63,2.168-20.243
				c-1.701,0.594-8.105,2.831-9.666,3.376c-0.078,0.343-0.418,2.523-0.518,4.604c-0.194,4.02,1.529,9.184,3.573,12.263h-3.406
				c-1.329-4.647-1.568-11.056-0.699-16.5c-0.966,0.337-4.474,1.557-4.474,1.557c-0.716,5.576,0.149,15.999,2.299,19.735
				c0,0,27.28,0,28.196,0c0.001-0.001,0.001-0.002,0.002-0.003C69.805,30.211,72.756,23.272,72.526,14.67z M45.78,21.666
				c-1.205-1.673-2.439-5.648-2.229-9.032c0.665-0.23,2.073-0.736,3.237-1.13C47.005,14.36,46.789,18.916,45.78,21.666z
				 M65.42,25.529c-1.639,0-2.764-4.132-2.764-10.28c0-6.018,1.048-10.114,2.764-10.114c1.768,0,2.592,5.258,2.592,10.504
				C68.012,21.889,66.574,25.529,65.42,25.529z"/>
			<path fill="#000000" d="M25.661,13.775c-0.785,4.691,0.081,9.677,0.858,11.754c-1.432,0-0.516,0-1.936,0
				c0.101-2.246-0.325-7.379-1.616-10.813c-1.973,0.689-3.861,1.349-5.4,1.886c-1.152,3.729-0.726,9.133,0.5,13.719
				c0.819,0,2.081,0,2.888,0c-1.085,3.04-5.05,5.436-7.504,6.897c2.147,1.859,6.671,2.279,6.671,2.279s3.278-5.089,3.787-9.182
				c0,0,7.976,0.011,9.25,0.011c1.384-3.803,1.102-12.742-1.243-18.736C29.535,12.425,27.17,13.264,25.661,13.775z M21.669,25.529
				c-0.213,0-1.226,0-1.404,0c-0.267-1.354-0.437-3.069-0.3-4.658c0.191-0.073,1.206-0.416,1.364-0.468
				C22.004,22.521,21.669,25.529,21.669,25.529z M30.877,25.529c-0.301,0-0.665,0-0.947,0c-0.624-1.335-1.408-5.053-1.395-7.651
				c0.115-0.04,1.533-0.538,1.635-0.571C30.794,19.591,31.079,22.997,30.877,25.529z"/>
			<path fill="#000000" d="M15.528,17.314c-0.663,0.232-1.768,0.618-2.566,0.896c0.299,1.963,0.714,5.083,0.651,7.319
				c-0.463,0.008-1.365,0-1.93,0c-0.329-1.135-0.62-5.084-0.566-6.674c-1.354,0.473-2.174,0.765-2.853,0.999
				c-0.315,4.663,0.268,6.977,1.007,10.467c0.711,0,6.229,0,6.95,0C16.827,26.081,16.651,22.945,15.528,17.314z"/>
			<ellipse fill="#000000" cx="44.622" cy="5.473" rx="1.031" ry="1.251"/>
			<ellipse fill="#000000" cx="28.466" cy="11.014" rx="1.031" ry="1.251"/>
			<ellipse fill="#000000" cx="54.376" cy="31.965" rx="1.031" ry="1.251"/>
			<ellipse fill="#000000" cx="56.738" cy="31.965" rx="1.031" ry="1.251"/>
			<ellipse fill="#000000" cx="11.778" cy="17.163" rx="1.031" ry="1.251"/>
		</g>
	</g>
</g>
</svg>
